<?xml version="1.0" encoding="utf-8"?>
<!-- Generator: Adobe Illustrator 25.1.0, SVG Export Plug-In . SVG Version: 6.00 Build 0)  -->
<svg version="1.1" id="Calque_1" xmlns:sketch="http://www.bohemiancoding.com/sketch/ns"
	 xmlns="http://www.w3.org/2000/svg" xmlns:xlink="http://www.w3.org/1999/xlink" x="0px" y="0px" viewBox="0 0 46 46"
	 style="enable-background:new 0 0 46 46;" xml:space="preserve">
<style type="text/css">
	.st0{fill-rule:evenodd;clip-rule:evenodd;fill:#4285F4;}
	.st1{fill-rule:evenodd;clip-rule:evenodd;fill:#34A853;}
	.st2{fill-rule:evenodd;clip-rule:evenodd;fill:#FBBC05;}
	.st3{fill-rule:evenodd;clip-rule:evenodd;fill:#EA4335;}
	.st4{fill:none;}
</style>
<desc>Created with Sketch.</desc>
<g id="Google-Button" sketch:type="MSPage">
	<g id="_x39_-PATCH" transform="translate(-608.000000, -160.000000)" sketch:type="MSArtboardGroup">
	</g>
	<g id="btn_google_light_normal" transform="translate(-1.000000, -1.000000)" sketch:type="MSArtboardGroup">
		<g id="logo_googleg_48dp" transform="translate(15.000000, 15.000000)" sketch:type="MSLayerGroup">
			<path id="Shape" sketch:type="MSShapeGroup" class="st0" d="M29.3,9.5c0-1.5-0.1-2.9-0.4-4.3H9v8.2h11.4c-0.5,2.6-2,4.9-4.2,6.4
				V25H23C27,21.3,29.3,15.9,29.3,9.5L29.3,9.5z"/>
			<path id="Shape_1_" sketch:type="MSShapeGroup" class="st1" d="M9,30.1c5.7,0,10.5-1.9,14-5.1l-6.8-5.3c-1.9,1.3-4.3,2-7.1,2
				C3.5,21.7-1.2,18-2.8,13h-7.1v5.5C-6.4,25.4,0.7,30.1,9,30.1L9,30.1z"/>
			<path id="Shape_2_" sketch:type="MSShapeGroup" class="st2" d="M-2.8,13c-0.4-1.3-0.7-2.6-0.7-4s0.2-2.7,0.7-4v-5.5h-7.1
				c-1.4,2.8-2.2,6.1-2.2,9.5s0.8,6.6,2.2,9.5L-2.8,13L-2.8,13z"/>
			<path id="Shape_3_" sketch:type="MSShapeGroup" class="st3" d="M9-3.7c3.1,0,5.9,1.1,8.1,3.2l6.1-6.1C19.5-10,14.7-12.1,9-12.1
				C0.7-12.1-6.4-7.4-9.9-0.5L-2.8,5C-1.2,0,3.5-3.7,9-3.7L9-3.7z"/>
			<path id="Shape_4_" sketch:type="MSShapeGroup" class="st4" d="M-12.1-12.1h42.2v42.2h-42.2V-12.1z"/>
		</g>
		<g id="handles_square" sketch:type="MSLayerGroup">
		</g>
	</g>
</g>
</svg>
