<?xml version="1.0" encoding="utf-8"?>
<!-- Generator: Adobe Illustrator 25.1.0, SVG Export Plug-In . SVG Version: 6.00 Build 0)  -->
<svg version="1.1" id="Calque_1" xmlns="http://www.w3.org/2000/svg" xmlns:xlink="http://www.w3.org/1999/xlink" x="0px" y="0px"
	 viewBox="0 0 128 64" style="enable-background:new 0 0 128 64;" xml:space="preserve">
<style type="text/css">
	.st0{fill:#FE8E25;}
	.st1{fill:#FFFFFF;}
</style>
<g>
	<path class="st0" d="M104.71,7.5l-5.78,10c-0.18,0.31-0.51,0.5-0.87,0.5h-5.77c-0.36,0-0.69-0.19-0.87-0.5l-5.77-10
		c-0.38-0.67-1.35-0.67-1.73,0l-4.04,7c-0.38,0.67-1.35,0.67-1.73,0l-2.32-4c-0.18-0.31-0.51-0.5-0.87-0.5H14.92
		c-0.77,0-1.25,0.83-0.87,1.5l11.55,20c0.18,0.31,0.18,0.69,0,1l-11.5,20c-0.38,0.67,0.1,1.5,0.87,1.5h27.71
		c0.36,0,0.69-0.19,0.87-0.5l2.31-4c0.38-0.67,1.35-0.67,1.73,0l2.31,4c0.18,0.31,0.51,0.5,0.87,0.5h24.25
		c0.36,0,0.69-0.19,0.87-0.5l5.2-9c0.18-0.31,0.51-0.5,0.87-0.5h0c0.77,0,1.25,0.83,0.87,1.5l-4.04,7c-0.38,0.67,0.1,1.5,0.87,1.5
		h16.17c0.36,0,0.69-0.19,0.87-0.5l17.85-31c0.18-0.31,0.18-0.69,0-1l-8.08-14C106.06,6.83,105.09,6.83,104.71,7.5z M94.64,52H83.1
		c-0.77,0-1.25-0.83-0.87-1.5l4.04-7c0.38-0.67-0.1-1.5-0.87-1.5h-4.62c-0.36,0-0.69,0.19-0.87,0.5l-5.2,9
		c-0.18,0.31-0.51,0.5-0.87,0.5H51.92c-0.36,0-0.69-0.19-0.87-0.5l-3.46-6c-0.38-0.67-1.35-0.67-1.73,0l-3.46,6
		c-0.18,0.31-0.51,0.5-0.87,0.5h-23.1c-0.77,0-1.25-0.83-0.87-1.5l10.35-18c0.18-0.31,0.18-0.69,0-1l-10.39-18
		c-0.38-0.67,0.1-1.5,0.87-1.5h55.42c0.36,0,0.69,0.19,0.87,0.5l3.47,6c0.39,0.67,1.35,0.67,1.73,0l4.04-7
		c0.38-0.67,1.35-0.67,1.73,0l4.62,8c0.18,0.31,0.51,0.5,0.87,0.5h8.09c0.36,0,0.69-0.19,0.87-0.5l4.62-8
		c0.38-0.67,1.35-0.67,1.73,0l5.77,10c0.18,0.31,0.18,0.69,0,1l-16.7,29C95.33,51.81,95,52,94.64,52z"/>
	<path class="st1" d="M109.9,22.5l-15.55,27c-0.18,0.31-0.51,0.5-0.87,0.5h-6.93c-0.77,0-1.25-0.83-0.87-1.5l4.58-8
		c0.18-0.31,0.18-0.69,0-1l-4.62-8c-0.39-0.67-1.35-0.67-1.73,0L73.57,49.5c-0.18,0.31-0.51,0.5-0.87,0.5H53.07
		c-0.36,0-0.69-0.19-0.87-0.5l-9.85-17c-0.18-0.31-0.18-0.69,0-1l9.81-17c0.18-0.31,0.51-0.5,0.87-0.5h19.63
		c0.36,0,0.69,0.19,0.87,0.5L77,20.5c0.39,0.67-0.1,1.5-0.87,1.5H57.65c-0.36,0-0.69,0.19-0.87,0.5l-5.19,9
		c-0.18,0.31-0.18,0.69,0,1l5.19,9c0.18,0.31,0.51,0.5,0.87,0.5h10.4c0.36,0,0.69-0.19,0.87-0.5l2.31-4c0.38-0.67-0.1-1.5-0.87-1.5
		h-9.23c-0.36,0-0.69-0.19-0.87-0.5l-1.73-3c-0.18-0.31-0.18-0.69,0-1l1.73-3c0.18-0.31,0.51-0.5,0.87-0.5h15.01
		c0.36,0,0.69-0.19,0.87-0.5l6.93-12c0.39-0.67,1.35-0.67,1.73,0l8.66,15c0.38,0.67,1.35,0.67,1.73,0l8.66-15
		c0.38-0.67,1.35-0.67,1.73,0l3.46,6C110.08,21.81,110.08,22.19,109.9,22.5z"/>
	<path class="st1" d="M49.28,15.5l-3.46,5.99c-0.18,0.31-0.51,0.5-0.87,0.5h-9.24c-0.77,0-1.25,0.83-0.87,1.5L45.53,42h0.04
		l-4.33,7.49c-0.18,0.31-0.51,0.5-0.87,0.5H21.9c-0.77,0-1.25-0.83-0.87-1.5l3.46-5.99c0.18-0.31,0.51-0.5,0.87-0.5h9.2
		c0.77,0,1.25-0.83,0.87-1.5l-14.44-25c-0.38-0.67,0.1-1.5,0.87-1.5h26.55C49.18,14,49.66,14.84,49.28,15.5z"/>
</g>
</svg>
