<svg clip-rule="evenodd" fill-rule="evenodd" stroke-linejoin="round" stroke-miterlimit="1.41421" viewBox="0 0 560 400" xmlns="http://www.w3.org/2000/svg"><path d="m70.4 522.6c-34.9 79.1-106.6 120.5-183.2 119.5-146.9-7.3-189.7-177-91.5-238.2l4.3 4.3c-1.7 2.2-7.4 6.8-16.6 24.8-10.7 21.8-14 43.6-12.7 57.2 7.6 118.6 173.6 142.7 230.7 25.5 72.7-160.8-120.1-324.2-291.3-199.3l-4-4c45-70.7 133-102.3 217.1-81.2 128.7 32.2 197.7 166.2 147.2 291.4zm-137.4-2.6c-11.9 17.1-31.7 28.3-54.1 28.3-36.4 0-65.9-29.5-65.9-65.9 0-34.8 26.9-63.3 61.1-65.7 21.3-.9 41.1 10.6 50.5 29.3 10.2 20.1 6.4 44.9-9.4 61.6 6 4.2 11.9 8.3 17.8 12.4zm-229.8-43.5c-3.2 26.2-1.2 34.3-1.2 37.4l-5.8 2.1c-2.2-4.3-7.8-19.5-10.2-39.8-6.3-77.8 46.7-147.9 127.4-160.9 74-10.9 144.8 35.1 161.3 99.4l-5.8 2.1c-1.7-1.9-4.8-7.1-16-18.5-89.3-89.6-229.6-48.5-249.7 78.2zm423.2-43.1c-5.3-257.1-346.7-352.9-478.2-112 5.8 4.2 13.8 9.9 19.7 14.1-10.1 21.2-16.8 42.7-20.5 64.2-2.6 14.1-3.9 28.6-3.9 43.4 0 133.4 108.1 241.6 241.6 241.6 133.4 0 241.5-108.1 241.5-241.6.1-3.3 0-6.5-.2-9.7m132.6 324.6h-38.5v109.4h-29.9v-109.4h-38.7v-28.3h107.1zm-183 0v31.9h58.4v22.8h-58.4v54.7h-29.9v-137.7h94.2v28.3zm-72.4 40.5c0-24.8-15.7-42.9-39.7-42.9-14 0-24.4 5.3-30.7 12.2l4.7 4.7c-7.3 6.1-13.8 14.6-13.8 29.7 0 20.8 14.8 39.1 39.7 39.1 24.1.1 39.8-18 39.8-42.8zm30.3 0c0 40.5-29.1 71.2-70 71.2-41.9 0-70-30.1-70-66.5 0-23.6 9.2-40.7 22.8-51.9l-4.7-4.7c10.4-10.8 29.5-19.3 51.9-19.3 40.9 0 70 31.1 70 71.2zm-184.1-13.2c23.6 8.3 35.8 18.9 35.8 40.1 0 28.5-21.8 44.3-47.6 44.3-23.8 0-42.1-10.6-49.8-30.3l23.8-17.7c4.3 12.4 15.5 20.1 26.7 20.1 9.8 0 16.9-5.3 16.9-14.2 0-8.3-5.3-13.4-25-20.5-21.2-7.7-37-18.3-37-41.1 0-22 18.3-38.7 44.8-38.7 21 0 37.4 8.5 45 25.2l-23.8 16.5c-4.5-10.2-11.6-15.9-22.4-15.9-9 0-15.7 4.9-15.7 12 .2 8 7.6 12.9 28.3 20.2zm-102.2-55.6h29.9v137.7h-29.9zm-61.5 111.3c12.8 0 20.1-5.9 20.1-17.3s-7.3-17.3-20.1-17.3h-16.5v34.6zm-16.5-85v29.1h15.7c9.2 0 15.5-5.3 15.5-14.6 0-9.2-6.3-14.6-15.5-14.6h-15.7zm66.5 70.4c0 23.8-18.7 40.9-48.8 40.9h-47.6v-137.6h45.8c26.5 0 44.1 12.8 44.1 33.2 0 15.5-7.3 25-18.1 29.5 14.5 5.5 24.6 15.5 24.6 34zm-111.2-96.7v82.6c0 32.8-20.1 57.4-56.8 57.4s-56.8-24.6-56.8-57.4v-82.6h29.9v80.2c0 20.1 9.4 31.5 26.9 31.5s26.9-11.4 26.9-31.5v-80.2z" fill="#000105" fill-rule="nonzero" transform="matrix(.361107 0 0 .361107 321.473 9.98349)"/></svg>