<?xml version="1.0" encoding="UTF-8" standalone="no"?>
<svg
   xmlns:dc="http://purl.org/dc/elements/1.1/"
   xmlns:cc="http://creativecommons.org/ns#"
   xmlns:rdf="http://www.w3.org/1999/02/22-rdf-syntax-ns#"
   xmlns:svg="http://www.w3.org/2000/svg"
   xmlns="http://www.w3.org/2000/svg"
   xmlns:sodipodi="http://sodipodi.sourceforge.net/DTD/sodipodi-0.dtd"
   xmlns:inkscape="http://www.inkscape.org/namespaces/inkscape"
   version="1.1"
   id="svg2"
   xml:space="preserve"
   width="2560"
   height="1440"
   viewBox="0 0 2560 1440"
   sodipodi:docname="logo_sgn_color.ai"><metadata
     id="metadata8"><rdf:RDF><cc:Work
         rdf:about=""><dc:format>image/svg+xml</dc:format><dc:type
           rdf:resource="http://purl.org/dc/dcmitype/StillImage" /></cc:Work></rdf:RDF></metadata><defs
     id="defs6" /><sodipodi:namedview
     pagecolor="#ffffff"
     bordercolor="#666666"
     borderopacity="1"
     objecttolerance="10"
     gridtolerance="10"
     guidetolerance="10"
     inkscape:pageopacity="0"
     inkscape:pageshadow="2"
     inkscape:window-width="640"
     inkscape:window-height="480"
     id="namedview4" /><g
     id="g10"
     inkscape:groupmode="layer"
     inkscape:label="logo_sgn_color"
     transform="matrix(1.3333333,0,0,-1.3333333,0,1440)"><g
       id="g12"
       transform="translate(1707.2676,727.999)"><path
         d="m 0,0 h -124.71 l -15.591,27 h 93.54 L -77.94,81 h -93.531 l -15.59,27 h 124.71 l 15.59,-27 15.58,-27 15.59,-27 z"
         style="fill:#2d2d2d;fill-opacity:1;fill-rule:nonzero;stroke:none"
         id="path14" /></g><g
       id="g16"
       transform="translate(1598.1475,754.999)"><path
         d="m 0,0 h -31.181 l -15.58,27 -15.59,27 h 31.17 L -15.59,27 Z"
         style="fill:#1b1464;fill-opacity:1;fill-rule:nonzero;stroke:none"
         id="path18" /></g><g
       id="g20"
       transform="translate(1629.3271,754.999)"><path
         d="m 0,0 h -31.18 l -15.59,27 -15.59,27 h 31.18 l 15.59,-27 z"
         style="fill:#ffffff;fill-opacity:1;fill-rule:nonzero;stroke:none"
         id="path22" /></g><g
       id="g24"
       transform="translate(1660.5068,754.999)"><path
         d="M 0,0 H -31.18 L -46.77,27 -62.359,54 H -31.18 Z"
         style="fill:#ed1c24;fill-opacity:1;fill-rule:nonzero;stroke:none"
         id="path26" /></g><g
       id="g28"
       transform="translate(757.562,268.999)"><path
         d="M 0,0 H -0.01 L -15.59,27 Z"
         style="fill:#ffffff;fill-opacity:1;fill-rule:nonzero;stroke:none"
         id="path30" /></g><g
       id="g32"
       transform="translate(586.082,295.999)"><path
         d="m 0,0 h -249.41 l 15.58,27 15.59,27 15.59,27 15.59,27 h 124.71 l 15.59,-27 15.58,-27 15.59,-27 z"
         style="fill:#272a33;fill-opacity:1;fill-rule:nonzero;stroke:none"
         id="path34" /></g><g
       id="g36"
       transform="translate(617.2622,295.999)"><path
         d="m 0,0 h -31.18 l -15.59,27 -15.59,27 -15.58,27 -15.59,27 h 31.17 l 15.59,-27 15.59,-27 z"
         style="fill:#14151a;fill-opacity:1;fill-rule:nonzero;stroke:none"
         id="path38" /></g><g
       id="g40"
       transform="translate(460.7817,511.999)"><path
         d="m 0,0 -15.59,-27 -15.59,-27 -15.58,-27 h -31.18 l 15.59,27 15.59,27 15.58,27 15.59,27 z"
         style="fill:#dbdbdb;fill-opacity:1;fill-rule:nonzero;stroke:none"
         id="path42" /></g><g
       id="g44"
       transform="translate(507.5518,430.999)"><path
         d="m 0,0 h -93.53 l 15.58,27 15.59,27 15.59,27 15.59,-27 15.59,-27 z"
         style="fill:#b3b3b3;fill-opacity:1;fill-rule:nonzero;stroke:none"
         id="path46" /></g><g
       id="g48"
       transform="translate(741.3721,781.999)"><path
         d="m 0,0 -15.59,-27 -15.58,-27 -31.18,-54 h -155.89 l 15.59,-27 15.59,-27 15.59,-27 15.59,-27 15.59,-27 15.59,-27 15.58,-27 15.59,-27 15.59,-27 15.59,-27 h 0.59 l -15.59,-27 -15.58,-27 -15.59,-27 -15.59,-27 -31.18,54 -15.59,27 -15.59,27 h -0.59 l -15.59,27 -15.59,27 -15.58,27 -15.59,27 -15.59,27 -15.59,27 -15.59,27 -15.59,27 -15.58,27 -15.59,27 -15.59,27 -15.59,27 -15.59,27 -15.59,27 z"
         style="fill:#272a33;fill-opacity:1;fill-rule:nonzero;stroke:none"
         id="path50" /></g><g
       id="g52"
       transform="translate(1536.3916,646.999)"><path
         d="m 0,0 -15.59,-27 -15.59,-27 -15.59,-27 -15.589,-27 -15.59,-27 -15.591,-27 -15.579,-27 -15.591,-27 -15.59,-27 h 0.59 l -15.59,-27 -15.58,-27 -31.18,-54 h -124.71 l 15.59,27 15.59,27 15.59,27 15.58,27 h -0.59 l 15.59,27 -15.59,27 -15.59,27 -15.589,27 -15.581,27 -15.589,27 -15.59,-27 -15.591,-27 -15.59,-27 -15.59,-27 -15.58,-27 -15.59,-27 h 0.59 l -15.59,-27 -15.589,-27 -15.59,-27 -15.58,-27 H -763.25 l -15.59,27 -15.579,27 -15.591,27 -15.59,27 h -0.589 l -15.591,27 -15.59,-27 h 0.59 l -15.59,-27 -15.58,-27 -15.59,-27 -15.589,-27 h -280.591 l 15.58,27 15.59,27 15.591,27 15.589,27 h 155.29 l -15.589,27 -15.591,27 -15.58,27 -15.59,27 -15.59,27 -15.59,27 -15.59,27 -15.59,27 -15.58,27 -15.589,27 -15.591,27 -15.59,27 -15.589,27 -15.591,27 h 717.07 l 31.181,-54 15.59,-27 15.589,-27 15.59,-27 15.58,27 15.59,27 15.59,27 15.591,27 15.59,27 15.589,-27 15.581,-27 15.589,-27 15.59,-27 15.59,-27 15.591,-27 15.59,-27 15.59,-27 15.58,-27 15.59,27 15.589,27 15.59,27 15.59,27 15.591,27 15.579,27 15.591,27 15.59,27 15.589,27 15.59,-27 L -15.59,81 0,54 15.58,27 Z M 31.171,54 15.58,81 0,108 l -15.59,27 -15.59,27 -15.59,27 -15.589,-27 -15.59,-27 -15.591,-27 -15.579,-27 -15.591,-27 -15.59,-27 -15.59,-27 -15.589,-27 -15.59,-27 -15.58,27 -15.59,27 -15.59,27 -15.591,27 -15.59,27 -15.59,27 -15.589,27 -15.581,27 -15.589,27 -15.59,-27 -15.591,-27 -15.59,-27 -15.59,-27 -15.58,-27 -15.59,27 -15.589,27 -15.59,27 -15.59,27 h -779.421 l 15.59,-27 15.58,-27 15.59,-27 15.591,-27 15.589,-27 15.59,-27 15.591,-27 15.589,-27 15.58,-27 15.59,-27 15.59,-27 15.59,-27 15.59,-27 15.59,-27 h -124.71 l -15.59,-27 h 0.59 l -15.59,-27 -15.58,-27 -15.59,-27 -15.589,-27 -15.591,-27 h 342.95 l 15.59,27 15.58,27 31.181,54 15.589,-27 15.59,-27 15.591,-27 15.579,-27 h 311.771 l 15.59,27 15.589,27 15.59,27 15.59,27 15.591,27 h -0.601 l 15.59,27 15.59,27 15.591,27 15.59,27 15.589,-27 15.581,-27 15.589,-27 -15.589,-27 h 0.599 l -15.59,-27 -15.59,-27 -15.589,-27 -15.59,-27 -15.591,-27 h 187.07 l 15.59,27 15.58,27 15.59,27 15.591,27 15.59,27 h -0.59 l 15.579,27 15.591,27 15.59,27 15.589,27 15.59,27 15.59,27 15.59,27 15.58,27 15.591,27 15.59,27 z"
         style="fill:#dbdbdb;fill-opacity:1;fill-rule:nonzero;stroke:none"
         id="path54" /></g><g
       id="g56"
       transform="translate(897.2622,781.999)"><path
         d="m 0,0 -31.18,-54 -15.59,-27 -15.59,-27 -15.58,-27 -31.18,-54 -15.59,-27 -15.59,-27 -15.59,-27 -15.58,-27 -15.59,-27 -15.59,-27 -15.59,27 -15.59,27 -15.59,27 -15.59,27 15.59,27 15.59,27 15.59,27 31.18,54 15.58,27 15.59,27 15.59,27 15.59,27 z"
         style="fill:#272a33;fill-opacity:1;fill-rule:nonzero;stroke:none"
         id="path58" /></g><g
       id="g60"
       transform="translate(772.5518,511.999)"><path
         d="m 0,0 -15.59,-27 -15.59,-27 -15.58,-27 -15.59,-27 -15.59,27 15.59,27 15.59,27 15.58,27 15.59,27 z"
         style="fill:#14151a;fill-opacity:1;fill-rule:nonzero;stroke:none"
         id="path62" /></g><g
       id="g64"
       transform="translate(960.2021,403.999)"><path
         d="m 0,0 -15.58,-27 -15.59,-27 -15.59,-27 -15.59,-27 h -124.71 l -15.59,27 -15.58,27 -15.59,27 -15.59,27 H -250 l 15.59,27 15.58,27 15.59,27 15.59,27 15.59,-27 31.18,-54 15.58,-27 z"
         style="fill:#272a33;fill-opacity:1;fill-rule:nonzero;stroke:none"
         id="path66" /></g><g
       id="g68"
       transform="translate(663.4321,646.999)"><path
         d="m 0,0 -15.59,-27 -15.59,-27 -15.58,-27 -15.59,27 -15.59,27 -15.59,27 z"
         style="fill:#ffffff;fill-opacity:1;fill-rule:nonzero;stroke:none"
         id="path70" /></g><g
       id="g72"
       transform="translate(991.3818,403.999)"><path
         d="m 0,0 -15.59,-27 -15.59,-27 -15.58,-27 -15.59,-27 h -31.18 l 15.59,27 15.59,27 15.59,27 15.58,27 z"
         style="fill:#14151a;fill-opacity:1;fill-rule:nonzero;stroke:none"
         id="path74" /></g><g
       id="g76"
       transform="translate(1333.7422,565.999)"><path
         d="m 0,0 -15.59,-27 -15.59,-27 -15.591,-27 -15.589,-27 -15.59,27 -15.59,27 -15.58,27 -15.59,27 -15.59,-27 -15.591,-27 -15.589,-27 -15.59,-27 -15.58,-27 -15.59,-27 h 0.59 l -15.59,-27 -15.59,-27 -15.59,-27 -15.58,-27 h -124.71 l 15.59,27 15.58,27 15.59,27 15.59,27 h -0.59 l 15.59,27 15.589,27 15.581,27 h -155.88 l -15.59,27 -15.59,27 15.59,27 15.59,27 h 218.24 l 15.59,27 15.59,27 15.58,27 15.59,27 15.589,27 15.591,27 15.59,27 15.59,-27 15.58,-27 15.59,-27 15.59,-27 15.589,-27 15.591,-27 15.59,-27 z"
         style="fill:#272a33;fill-opacity:1;fill-rule:nonzero;stroke:none"
         id="path78" /></g><g
       id="g80"
       transform="translate(772.5518,781.999)"><path
         d="m 0,0 -15.59,-27 -15.59,-27 -15.59,-27 -15.58,-27 -31.18,-54 -15.59,-27 -15.59,-27 -15.59,-27 15.59,-27 15.59,-27 15.59,-27 15.59,-27 -15.59,-27 -15.59,27 -15.59,27 -15.59,27 -15.58,27 -15.59,27 -15.59,27 -15.59,27 -15.59,27 -15.59,27 -15.59,27 h 155.89 l 31.18,54 15.59,27 15.58,27 z"
         style="fill:#dbdbdb;fill-opacity:1;fill-rule:nonzero;stroke:none"
         id="path82" /></g><g
       id="g84"
       transform="translate(928.4419,781.999)"><path
         d="m 0,0 -15.59,-27 -15.59,-27 -31.18,-54 h -31.18 l 15.59,27 15.59,27 31.18,54 z"
         style="fill:#14151a;fill-opacity:1;fill-rule:nonzero;stroke:none"
         id="path86" /></g><g
       id="g88"
       transform="translate(1115.502,673.999)"><path
         d="m 0,0 h -249.42 l 31.18,54 15.59,27 15.59,27 h 124.7 l 31.18,-54 15.59,-27 z"
         style="fill:#272a33;fill-opacity:1;fill-rule:nonzero;stroke:none"
         id="path90" /></g><g
       id="g92"
       transform="translate(1255.792,430.999)"><path
         d="m 0,0 -15.59,-27 h -93.53 l 15.59,27 z"
         style="fill:#dbdbdb;fill-opacity:1;fill-rule:nonzero;stroke:none"
         id="path94" /></g><g
       id="g96"
       transform="translate(1255.792,430.999)"><path
         d="m 0,0 h -93.53 l 15.59,27 15.59,27 15.59,27 15.59,-27 15.58,-27 z"
         style="fill:#b3b3b3;fill-opacity:1;fill-rule:nonzero;stroke:none"
         id="path98" /></g><g
       id="g100"
       transform="translate(1084.3223,619.999)"><path
         d="m 0,0 h -218.24 l -15.59,-27 -15.59,-27 -15.58,-27 15.58,-27 15.59,-27 15.59,-27 h 124.71 l -15.59,-27 h -124.71 l -15.59,27 -15.58,27 -31.18,54 31.18,54 15.58,27 15.59,27 H 15.59 Z m 31.18,54 h -280.6 L -265,27 l -31.18,-54 -15.591,-27 -15.589,-27 15.589,-27 15.591,-27 31.18,-54 15.58,-27 h 155.89 l 15.59,27 15.589,27 15.58,27 H -202.65 l -15.59,27 -15.59,27 15.59,27 15.59,27 H 15.59 L 31.18,0 46.77,27 Z"
         style="fill:#dbdbdb;fill-opacity:1;fill-rule:nonzero;stroke:none"
         id="path102" /></g><g
       id="g104"
       transform="translate(1099.9121,646.999)"><path
         d="m 0,0 -15.59,-27 h -218.24 l -15.59,-27 -15.59,-27 -15.58,-27 15.58,-27 15.59,-27 15.59,-27 h 124.71 l -15.59,-27 h -124.71 l -15.59,27 -15.58,27 -31.18,54 31.18,54 15.58,27 15.59,27 z"
         style="fill:#b3b3b3;fill-opacity:1;fill-rule:nonzero;stroke:none"
         id="path106" /></g><g
       id="g108"
       transform="translate(1551.9717,673.999)"><path
         d="m 0,0 -15.58,-27 -15.59,-27 -15.59,-27 -15.59,-27 -15.589,-27 -15.59,-27 -15.591,-27 -15.579,-27 -15.591,-27 -15.59,-27 h 0.59 l -15.59,-27 -15.58,-27 -31.18,-54 h -124.71 l 15.59,27 15.59,27 15.59,27 15.58,27 h -0.59 l 15.59,27 15.591,27 15.59,27 15.59,27 15.58,27 15.589,27 15.59,27 15.59,27 15.59,27 15.591,27 15.579,27 15.591,27 15.59,27 15.589,27 15.59,-27 15.59,-27 15.59,-27 z"
         style="fill:#272a33;fill-opacity:1;fill-rule:nonzero;stroke:none"
         id="path110" /></g><g
       id="g112"
       transform="translate(1567.5625,646.999)"><path
         d="m 0,0 -15.591,-27 -15.58,-27 -15.59,-27 -15.59,-27 -15.589,-27 -15.59,-27 -15.59,-27 -15.591,-27 -15.579,-27 h 0.59 l -15.59,-27 -15.591,-27 -15.59,-27 -15.58,-27 -15.59,-27 h -187.07 l 15.591,27 15.59,27 15.59,27 15.589,27 15.59,27 h -93.529 l -15.591,-27 -15.59,-27 -15.59,-27 -15.589,-27 -15.59,-27 h -311.771 l -15.579,27 -15.591,27 -15.59,27 -15.589,27 -31.181,-54 -15.58,-27 -15.589,-27 h -342.951 l 15.591,27 15.59,27 15.589,27 15.58,27 15.59,27 h -0.59 l 15.59,27 15.591,27 15.589,27 15.581,27 15.589,27 -15.589,27 -15.581,27 -15.589,27 -15.591,27 -15.59,27 -15.589,27 -15.591,27 -15.59,27 -15.58,27 -15.589,27 h 779.42 l 15.59,-27 15.59,-27 15.589,-27 15.59,-27 15.58,27 15.59,27 15.59,27 15.591,27 15.59,27 15.59,-27 15.58,-27 15.589,-27 15.59,-27 15.59,-27 h 124.71 l 15.591,27 15.579,27 15.591,27 15.59,27 15.59,27 15.589,-27 15.59,-27 15.59,-27 15.58,-27 L 0,54 15.59,27 Z M 31.18,54 15.59,81 0,108 l -15.591,27 -15.58,27 -15.59,27 -15.59,27 -15.589,27 -15.59,-27 -15.59,-27 -15.591,-27 -15.579,-27 -15.591,-27 -15.59,-27 H -265 l -15.591,27 -15.59,27 -15.59,27 -15.589,27 h 0.009 l -15.589,27 -15.59,27 -15.59,-27 -15.591,-27 -15.59,-27 -15.59,-27 -15.58,-27 -15.59,27 -15.589,27 -15.59,27 h -841.781 l 15.59,-27 15.591,-27 15.59,-27 15.589,-27 15.58,-27 15.59,-27 15.591,-27 15.589,-27 15.59,-27 15.591,-27 15.589,-27 -15.589,-27 -15.591,-27 -15.59,-27 -15.589,-27 -15.591,-27 h 0.6 l -15.589,-27 -15.59,-27 -15.591,-27 -15.589,-27 -15.59,-27 -15.591,-27 h 405.31 l 15.58,27 31.181,54 15.589,-27 15.59,-27 15.591,-27 h 342.94 l 15.589,27 15.59,27 15.59,27 15.591,27 15.579,27 h 31.181 l -15.59,-27 -15.591,-27 -15.579,-27 -15.591,-27 -15.59,-27 h 249.42 l 15.58,27 15.59,27 15.591,27 31.18,54 15.589,27 h -0.599 l 15.59,27 15.59,27 15.589,27 15.59,27 15.59,27 15.58,27 L 0,-54 15.59,-27 31.18,0 46.77,27 Z"
         style="fill:#2d2d2d;fill-opacity:1;fill-rule:nonzero;stroke:none"
         id="path114" /></g><g
       id="g116"
       transform="translate(1396.0918,673.999)"><path
         d="m 0,0 -15.59,-27 -15.59,-27 -15.59,-27 -15.58,27 -15.589,27 -15.59,27 z"
         style="fill:#b3b3b3;fill-opacity:1;fill-rule:nonzero;stroke:none"
         id="path118" /></g><g
       id="g120"
       transform="translate(1349.3223,538.999)"><path
         d="m 0,0 -15.58,-27 -15.59,-27 -15.59,-27 -15.591,-27 -15.589,27 15.589,27 15.591,27 15.59,27 15.59,27 z"
         style="fill:#14151a;fill-opacity:1;fill-rule:nonzero;stroke:none"
         id="path122" /></g><g
       id="g124"
       transform="translate(1411.6816,700.999)"><path
         d="m 0,0 -15.59,-27 h -93.529 L -124.71,0 Z"
         style="fill:#dbdbdb;fill-opacity:1;fill-rule:nonzero;stroke:none"
         id="path126" /></g><g
       id="g128"
       transform="translate(616.6719,565.999)"><path
         d="M 0,0 -15.59,27 -31.18,54 -46.77,81 H 46.76 L 31.17,54 15.58,27 Z"
         style="fill:#b3b3b3;fill-opacity:1;fill-rule:nonzero;stroke:none"
         id="path130" /></g><g
       id="g132"
       transform="translate(460.7817,781.999)"><path
         d="m 0,0 -15.59,-27 -15.58,-27 -15.59,-27 -15.59,-27 -15.59,27 15.59,27 15.59,27 15.59,27 z"
         style="fill:#14151a;fill-opacity:1;fill-rule:nonzero;stroke:none"
         id="path134" /></g><g
       id="g136"
       transform="translate(1177.8311,889.999)"><path
         d="m 0,0 -31.18,-54 -15.59,-27 -15.59,27 -15.59,27 h -93.39 l -0.07,0.12 -0.07,-0.12 h -779.29 l -15.58,27 h 779.28 l 0.07,-0.12 0.07,0.12 z"
         style="fill:#ff6600;fill-opacity:1;fill-rule:nonzero;stroke:none"
         id="path138" /></g><g
       id="g140"
       transform="translate(1458.4209,889.999)"><path
         d="m 0,0 -15.59,-27 -31.18,-54 -15.589,-27 -15.58,-27 H -140.3 l -15.59,27 -15.589,27 -15.581,27 -15.589,27 -15.591,27 h 31.18 l 15.581,-27 15.589,-27 15.59,-27 15.59,-27 h 31.18 l 15.591,27 15.58,27 15.589,27 15.59,27 z"
         style="fill:#ff6600;fill-opacity:1;fill-rule:nonzero;stroke:none"
         id="path142" /></g><g
       id="g144"
       transform="translate(1645.499,619.999)"><path
         d="m 0,0 -15.58,-27 -15.59,-27 -15.59,-27 h 0.59 l -15.59,-27 -15.59,-27 -15.58,-27 -15.59,-27 -15.59,-27 -15.59,-27 -31.18,-54 -15.58,-27 -15.59,-27 -15.59,-27 -31.18,-54 h -1184.72 l 15.59,27 h 436.47 l 15.59,27 15.59,27 15.59,-27 15.59,-27 h 654.71 l 15.59,27 31.18,54 15.59,27 15.59,27 15.58,27 31.18,54 15.59,27 15.59,27 15.59,27 15.58,27 h -0.589 l 31.179,54 15.59,27 15.59,27 z"
         style="fill:#ff6600;fill-opacity:1;fill-rule:nonzero;stroke:none"
         id="path146" /></g></g></svg>
