<?xml version="1.0" encoding="UTF-8" standalone="no"?>
<svg
   xmlns:dc="http://purl.org/dc/elements/1.1/"
   xmlns:cc="http://creativecommons.org/ns#"
   xmlns:rdf="http://www.w3.org/1999/02/22-rdf-syntax-ns#"
   xmlns:svg="http://www.w3.org/2000/svg"
   xmlns="http://www.w3.org/2000/svg"
   xmlns:sodipodi="http://sodipodi.sourceforge.net/DTD/sodipodi-0.dtd"
   xmlns:inkscape="http://www.inkscape.org/namespaces/inkscape"
   version="1.1"
   id="svg2"
   xml:space="preserve"
   width="2560"
   height="1440"
   viewBox="0 0 2560 1440"
   sodipodi:docname="logo_sgn_white.ai"><metadata
     id="metadata8"><rdf:RDF><cc:Work
         rdf:about=""><dc:format>image/svg+xml</dc:format><dc:type
           rdf:resource="http://purl.org/dc/dcmitype/StillImage" /></cc:Work></rdf:RDF></metadata><defs
     id="defs6" /><sodipodi:namedview
     pagecolor="#ffffff"
     bordercolor="#666666"
     borderopacity="1"
     objecttolerance="10"
     gridtolerance="10"
     guidetolerance="10"
     inkscape:pageopacity="0"
     inkscape:pageshadow="2"
     inkscape:window-width="640"
     inkscape:window-height="480"
     id="namedview4" /><g
     id="g10"
     inkscape:groupmode="layer"
     inkscape:label="logo_sgn_white"
     transform="matrix(1.3333333,0,0,-1.3333333,0,1440)"><g
       id="g12"
       transform="translate(1536.9697,593)"><path
         d="m 0,0 -15.579,-27 -15.591,-27 -15.59,-27 -15.59,-27 -15.589,-27 -31.181,-54 -15.58,-27 h 0.59 l -15.59,-27 -15.59,-27 -15.59,-27 -15.58,-27 -15.59,-27 h -187.07 l 31.181,54 15.589,27 15.59,27 15.59,27 h -93.53 l -15.59,-27 -15.59,-27 -31.18,-54 -15.589,-27 h -311.77 l -15.581,27 -15.59,27 -15.59,27 -15.59,27 -31.18,-54 -15.58,-27 -15.59,-27 h -342.95 l 15.591,27 15.589,27 15.59,27 15.58,27 15.591,27 h -0.591 l 15.591,27 15.589,27 15.59,27 15.58,27 15.59,27 -15.59,27 -15.58,27 -15.59,27 -15.589,27 -31.181,54 -15.589,27 -15.591,27 -15.58,27 -15.59,27 h 779.421 l 15.59,-27 15.589,-27 31.18,-54 15.58,27 15.59,27 15.59,27 31.181,54 15.589,-27 15.58,-27 15.59,-27 15.59,-27 15.59,-27 h 124.71 l 15.59,27 15.58,27 31.181,54 15.589,27 15.59,-27 15.59,-27 15.591,-27 L 0,108 31.181,54 Z M 15,189 46.181,135 H 15 l -15.579,27 -15.591,27 z m 62.36,0 31.18,-54 H 77.36 l -15.589,27 -15.59,27 z M 31.181,108 H 155.3 l -15.59,27 -15.59,27 -15.58,27 -15.59,27 H -31.17 l -15.59,27 -15.59,27 -15.589,-27 -31.181,-54 -15.58,-27 -15.59,-27 -15.59,-27 h -93.529 l -15.591,27 -15.59,27 -15.59,27 -15.59,27 h 0.01 l -15.59,27 -15.589,27 -31.181,-54 -15.59,-27 -15.59,-27 -15.58,-27 -31.18,54 -15.589,27 h -841.781 l 15.59,-27 15.59,-27 31.18,-54 15.58,-27 15.591,-27 15.589,-27 31.181,-54 15.589,-27 15.59,-27 -15.59,-27 -15.589,-27 -31.181,-54 -15.589,-27 h 0.599 l -15.59,-27 -15.589,-27 -15.591,-27 -31.18,-54 -15.59,-27 h 405.31 l 15.58,27 31.18,54 15.59,-27 15.59,-27 15.59,-27 h 342.94 l 31.18,54 15.59,27 15.59,27 15.58,27 h 31.181 l -31.181,-54 -15.58,-27 -15.59,-27 -15.59,-27 h 249.42 l 15.58,27 15.59,27 15.59,27 31.18,54 15.59,27 h -0.6 l 15.591,27 15.589,27 15.59,27 15.59,27 15.591,27 L 0,-54 31.181,0 46.771,27 62.36,54 46.771,81 Z"
         style="fill:#ffffff;fill-opacity:1;fill-rule:nonzero;stroke:none"
         id="path14" /></g><g
       id="g16"
       transform="translate(1583.1504,728)"><path
         d="M 0,0 H -31.181 L -46.76,27 -62.351,54 h 31.17 z"
         style="fill:#1b1464;fill-opacity:1;fill-rule:nonzero;stroke:none"
         id="path18" /></g><g
       id="g20"
       transform="translate(1645.5098,728)"><path
         d="M 0,0 H -31.18 L -46.77,27 -62.359,54 H -31.18 Z"
         style="fill:#ed1c24;fill-opacity:1;fill-rule:nonzero;stroke:none"
         id="path22" /></g><g
       id="g24"
       transform="translate(742.5601,242)"><path
         d="M 0,0 H -0.01 L -15.59,27 Z"
         style="fill:#ffffff;fill-opacity:1;fill-rule:nonzero;stroke:none"
         id="path26" /></g><g
       id="g28"
       transform="translate(1536.9697,755)"><path
         d="M 0,0 -15.579,27 H -16.17 L -0.579,0 15,-27 h 0.591 z"
         style="fill:#ffffff;fill-opacity:1;fill-rule:nonzero;stroke:none"
         id="path30" /></g><g
       id="g32"
       transform="translate(1536.9697,647)"><path
         d="m 0,0 -15.579,-27 -15.591,-27 -15.59,-27 -15.59,-27 -15.589,-27 -31.181,-54 -15.58,-27 -15.59,-27 -15.59,-27 h 0.59 l -15.59,-27 -15.58,-27 -31.18,-54 h -124.71 l 15.59,27 15.59,27 15.591,27 15.579,27 h -0.59 l 15.59,27 -15.59,27 -15.59,27 -15.59,27 -15.58,27 -15.589,27 -31.181,-54 -15.59,-27 -15.59,-27 -15.58,-27 -15.59,-27 h 0.59 l -31.18,-54 -15.589,-27 -15.58,-27 H -778.83 l -15.589,27 -15.581,27 -15.59,27 -15.59,27 h -0.59 l -15.59,27 -15.59,27 -15.59,27 -15.589,27 -15.591,27 15.591,27 15.589,27 15.59,27 31.18,54 15.581,27 15.589,27 15.59,27 15.591,27 h 280.59 l 31.18,-54 15.589,-27 15.59,-27 h -280.6 l -15.579,-27 -31.181,-54 -15.589,-27 -15.591,-27 15.591,-27 15.589,-27 31.181,-54 15.579,-27 h 155.89 l 15.59,27 15.59,27 15.58,27 H -670.3 l -15.59,27 -15.589,27 15.589,27 15.59,27 h 218.24 l 31.18,54 15.58,27 15.59,27 15.59,27 31.181,54 15.589,-27 15.58,-27 15.59,-27 15.59,-27 15.59,-27 31.181,-54 15.59,-27 15.58,-27 15.589,27 31.18,54 15.59,27 15.59,27 15.58,27 31.181,54 15.589,27 15.59,-27 15.59,-27 15.591,-27 z"
         style="fill:#ffffff;fill-opacity:1;fill-rule:nonzero;stroke:none"
         id="path34" /></g><g
       id="g36"
       transform="translate(726.3701,755)"><path
         d="m 0,0 -15.59,-27 -15.58,-27 -31.18,-54 h -155.89 l 15.59,-27 31.18,-54 15.59,-27 15.59,-27 15.59,-27 15.58,-27 15.59,-27 15.59,-27 15.59,-27 h 0.59 l -15.59,-27 -15.58,-27 -15.59,-27 -15.59,-27 H -404.7 l 15.58,27 15.59,27 15.59,27 15.59,27 h 155.29 l -15.59,27 -15.59,27 -15.58,27 -15.59,27 -15.59,27 -15.59,27 -31.18,54 -15.58,27 -15.59,27 -15.59,27 -31.18,54 -15.59,27 z"
         style="fill:#ffffff;fill-opacity:1;fill-rule:nonzero;stroke:none"
         id="path38" /></g></g></svg>
